HIERARCHY
ROOT hip
{
	OFFSET 0.000000 0.000000 0.000000
	CHANNELS 6 Xposition Yposition Zposition Xrotation Zrotation Yrotation 
	JOINT abdomen
	{
		OFFSET 0.000000 3.422050 0.000000
		CHANNELS 3 Xrotation Zrotation Yrotation 
		JOINT chest
		{
			OFFSET 0.000000 8.486693 -0.684411
			CHANNELS 3 Xrotation Zrotation Yrotation 
			JOINT neck
			{
				OFFSET 0.000000 10.266162 -0.273764
				CHANNELS 3 Xrotation Zrotation Yrotation 
				JOINT head
				{
					OFFSET 0.000000 3.148285 0.000000
					CHANNELS 3 Xrotation Zrotation Yrotation 
					End Site
					{
						OFFSET 0.000000 3.148289 0.000000
					}
				}
			}
			JOINT lCollar
			{
				OFFSET 3.422053 6.707223 -0.821293
				CHANNELS 3 Yrotation Zrotation Xrotation 
				JOINT lShldr
				{
					OFFSET 3.285171 0.000000 0.000000
					CHANNELS 3 Zrotation Yrotation Xrotation 
					JOINT lForeArm
					{
						OFFSET 10.129278 0.000000 0.000000
						CHANNELS 3 Yrotation Zrotation Xrotation 
						JOINT lHand
						{
							OFFSET 8.486692 0.000000 0.000000
							CHANNELS 3 Zrotation Yrotation Xrotation 
							End Site
							{
								OFFSET 4.106464 0.000000 0.000000
							}
						}
					}
				}
			}
			JOINT rCollar
			{
				OFFSET -3.558935 6.707223 -0.821293
				CHANNELS 3 Yrotation Zrotation Xrotation 
				JOINT rShldr
				{
					OFFSET -3.148289 0.000000 0.000000
					CHANNELS 3 Zrotation Yrotation Xrotation 
					JOINT rForeArm
					{
						OFFSET -10.266159 0.000000 0.000000
						CHANNELS 3 Yrotation Zrotation Xrotation 
						JOINT rHand
						{
							OFFSET -8.349810 0.000000 0.000000
							CHANNELS 3 Zrotation Yrotation Xrotation 
							End Site
							{
								OFFSET -4.106464 0.000000 0.000000
							}
						}
					}
				}
			}
		}
	}
	JOINT lThigh
	{
		OFFSET 5.338403 -1.642589 1.368821
		CHANNELS 3 Xrotation Zrotation Yrotation 
		JOINT lShin
		{
			OFFSET -2.053232 -20.121670 0.000000
			CHANNELS 3 Xrotation Zrotation Yrotation 
			JOINT lFoot
			{
				OFFSET 0.000000 -19.300380 -1.231939
				CHANNELS 3 Xrotation Yrotation Zrotation 
				End Site
				{
					OFFSET 0.000000 -2.463878 4.653993
				}
			}
		}
	}
	JOINT rThigh
	{
		OFFSET -5.338403 -1.642589 1.368821
		CHANNELS 3 Xrotation Zrotation Yrotation 
		JOINT rShin
		{
			OFFSET 2.053232 -20.121670 0.000000
			CHANNELS 3 Xrotation Zrotation Yrotation 
			JOINT rFoot
			{
				OFFSET 0.000000 -19.300380 -1.231939
				CHANNELS 3 Xrotation Yrotation Zrotation 
				End Site
				{
					OFFSET 0.000000 -2.463878 4.653993
				}
			}
		}
	}
}
MOTION
Frames: 6
Frame Time: 0.049954
-24.002867 7.997272 6.995714 89.949715 88.004456 -178.040726 6.716090 -2.493389 -0.705205 33.322426 -0.848716 0.078886 -17.000553 0.000000 0.000000 -39.001785 0.000000 0.000000 -39.512032 -5.171256 12.362759 -35.288769 40.079559 -0.239991 -79.291084 30.826424 -6.768312 -3.910556 19.047598 1.048309 22.813902 13.846964 16.927914 53.444912 -43.758381 -12.528692 79.668945 -4.121168 -1.006267 15.707171 4.274710 -1.065010 0.448874 5.594072 -1.240318 -3.086546 -1.423500 1.642543 21.801825 25.611347 -23.236620 -34.018253 -41.026615 -47.114239 72.325745 -39.297642 31.403210 21.068880 -19.040730 13.454779 
-24.002867 7.997272 6.995714 89.949715 88.004456 -178.040726 6.716090 -2.493389 -0.705205 34.056713 -0.845992 0.080612 -17.000553 0.000000 0.000000 -39.001785 0.000000 0.000000 -39.661324 -4.710010 12.407843 -35.609207 40.277679 -0.422960 -80.544189 31.725506 -6.148817 -3.679301 18.885660 0.704959 23.154711 13.784015 16.782133 53.444912 -43.758381 -12.528692 79.668945 -4.121168 -1.006267 15.281176 4.585577 -1.335312 0.448874 5.594072 -1.240318 -3.086546 -1.423500 1.642543 21.801825 25.611347 -23.236620 -34.132664 -40.547565 -46.437805 72.325745 -39.297642 31.403210 21.158289 -19.441513 14.178412 
-24.002867 7.997272 6.995714 89.949615 88.004410 -178.040771 6.716090 -2.493389 -0.705205 34.791328 -0.843289 0.082372 -17.000553 0.000000 0.000000 -39.001785 0.000000 0.000000 -39.810928 -4.248795 12.454113 -35.931427 40.475018 -0.607937 -81.823219 32.614136 -5.498934 -3.447199 18.724995 0.361178 23.495293 13.720218 16.636765 53.444912 -43.758381 -12.528692 79.668945 -4.121168 -1.006267 14.853404 4.894515 -1.608124 0.448874 5.594072 -1.240318 -3.086546 -1.423500 1.642543 21.801825 25.611347 -23.236620 -34.238926 -40.067299 -45.767075 72.325745 -39.297642 31.403210 21.253355 -19.841421 14.904920 
-24.002867 7.997272 6.995714 89.949715 88.004456 -178.040726 6.716090 -2.493389 -0.705205 35.526215 -0.840607 0.084169 -17.000553 0.000000 0.000000 -39.001785 0.000000 0.000000 -39.960846 -3.787624 12.501574 -36.255470 40.671581 -0.794934 -83.128952 33.491329 -4.817947 -3.214263 18.565630 0.016978 23.835644 13.655580 16.491819 53.444912 -43.758381 -12.528692 79.668945 -4.121168 -1.006267 14.423859 5.201479 -1.883438 0.448874 5.594072 -1.240318 -3.086546 -1.423500 1.642543 21.801825 25.611347 -23.236620 -34.337177 -39.585907 -45.101887 72.325745 -39.297642 31.403210 21.354097 -20.240330 15.634301 
-24.002867 7.997272 6.995714 89.949715 88.004456 -178.040726 6.716090 -2.493389 -0.705205 36.261307 -0.837949 0.085999 -17.000553 0.000000 0.000000 -39.001785 0.000000 0.000000 -40.111095 -3.326522 12.550228 -36.581337 40.867352 -0.983957 -84.462013 34.356045 -4.105169 -2.980505 18.407566 -0.327628 24.175755 13.590100 16.347301 53.444912 -43.758381 -12.528692 79.668945 -4.121168 -1.006267 13.992539 5.506427 -2.161242 0.448874 5.594072 -1.240318 -3.086546 -1.423500 1.642543 21.801825 25.611347 -23.236620 -34.427574 -39.103527 -44.442139 72.325745 -39.297642 31.403210 21.460562 -20.638144 16.366581 
-24.002867 7.997272 6.995714 89.949806 88.004501 -178.040665 6.716090 -2.493389 -0.705205 36.996555 -0.835313 0.087865 -17.000553 0.000000 0.000000 -39.001785 0.000000 0.000000 -40.261677 -2.865506 12.600072 -36.909035 41.062309 -1.175025 -85.823097 35.207253 -3.359942 -2.745943 18.250832 -0.672630 24.515606 13.523783 16.203215 53.444912 -43.758381 -12.528692 79.668945 -4.121168 -1.006267 13.559461 5.809321 -2.441528 0.448874 5.594072 -1.240318 -3.086546 -1.423500 1.642543 21.801825 25.611347 -23.236620 -34.510273 -38.620277 -43.787701 72.325745 -39.297642 31.403210 21.572775 -21.034746 17.101770 
